<svg width="34" height="29" viewBox="0 0 34 29" fill="none" xmlns="http://www.w3.org/2000/svg">
<path fill-rule="evenodd" clip-rule="evenodd" d="M30.4617 0.383275C30.8736 0.209927 31.3244 0.15014 31.7672 0.210137C32.21 0.270134 32.6287 0.447722 32.9796 0.724417C33.3304 1.00111 33.6008 1.3668 33.7624 1.78341C33.924 2.20003 33.9709 2.65234 33.8984 3.09328L30.1184 26.0216C29.7517 28.2333 27.3251 29.5016 25.2967 28.3999C23.6001 27.4783 21.0801 26.0583 18.8134 24.5766C17.6801 23.8349 14.2084 21.4599 14.6351 19.7699C15.0017 18.3249 20.8351 12.8949 24.1684 9.66661C25.4767 8.39828 24.8801 7.66661 23.3351 8.83328C19.4967 11.7299 13.3384 16.1349 11.3017 17.3749C9.50507 18.4683 8.56841 18.6549 7.44841 18.4683C5.40507 18.1283 3.51007 17.6016 1.96341 16.9599C-0.126593 16.0933 -0.0249264 13.2199 1.96174 12.3833L30.4617 0.383275Z" fill="#26A4E5"/>
</svg>
