<svg width="36" height="21" viewBox="0 0 36 21" fill="none" xmlns="http://www.w3.org/2000/svg">
<path d="M34.1716 20.6339H30.37C28.9316 20.6339 28.4983 19.4689 25.92 16.8889C23.6666 14.7173 22.715 14.4473 22.145 14.4473C21.3566 14.4473 21.1416 14.6639 21.1416 15.7489V19.1689C21.1416 20.0939 20.8416 20.6356 18.425 20.6356C16.0805 20.4781 13.8069 19.7658 11.7916 18.5575C9.77627 17.3492 8.07685 15.6794 6.83331 13.6856C3.88062 10.0106 1.82616 5.6974 0.833313 1.08893C0.833313 0.518928 1.04998 0.00226134 2.13665 0.00226134H5.93665C6.91331 0.00226134 7.26498 0.437262 7.64831 1.44226C9.49331 6.87226 12.6416 11.5956 13.92 11.5956C14.41 11.5956 14.6233 11.3789 14.6233 10.1573V4.56393C14.4616 2.01226 13.1066 1.79726 13.1066 0.873928C13.1238 0.63033 13.2352 0.403009 13.4173 0.24025C13.5993 0.077491 13.8377 -0.00788333 14.0816 0.00226134H20.055C20.8716 0.00226134 21.1416 0.408928 21.1416 1.38559V8.9356C21.1416 9.7506 21.4916 10.0206 21.7383 10.0206C22.2283 10.0206 22.605 9.75059 23.5033 8.85393C25.4289 6.50557 27.0021 3.88921 28.1733 1.08726C28.2932 0.75085 28.5198 0.462885 28.8186 0.26729C29.1175 0.0716943 29.472 -0.0207957 29.8283 0.00392789H33.63C34.77 0.00392789 35.0116 0.573928 34.77 1.38726C33.3873 4.48462 31.6764 7.42477 29.6666 10.1573C29.2566 10.7823 29.0933 11.1073 29.6666 11.8406C30.0433 12.4106 31.3766 13.5239 32.2716 14.5823C33.575 15.8823 34.6566 17.3856 35.475 19.0323C35.8016 20.0923 35.2566 20.6339 34.1716 20.6339Z" fill="#0077FE"/>
</svg>
