<svg width="247" height="242" viewBox="0 0 247 242" fill="none" xmlns="http://www.w3.org/2000/svg">
<path d="M145.42 241.195C145.474 241.035 145.506 240.853 145.592 240.725C159.486 221.51 169.668 200.384 178.179 178.425C184.026 163.33 182.537 148.769 174.037 134.955C171.621 131.027 168.309 127.888 164.534 125.22C154.481 118.121 143.478 113.221 131.429 110.435C124.073 108.737 117.018 106.047 110.298 102.578C108.335 101.564 106.491 100.368 104.732 99.0549C94.377 91.3154 97.3326 76.274 105.984 70.755C110.417 67.926 115.249 66.6344 120.416 66.186C126.446 65.6629 132.411 65.9405 138.117 68.0542C147.103 71.3741 152 77.8967 152.927 87.3228C153.262 90.6962 153.208 90.6962 156.66 90.6962C163.574 90.6962 170.499 90.6642 177.413 90.7282C178.805 90.7389 179.204 90.3332 179.118 88.9775C178.082 71.4275 169.118 59.0977 153.532 51.3262C143.209 46.1807 132.077 44.8357 120.643 45.4121C110.827 45.9032 101.432 47.9635 92.8345 52.8634C91.1302 53.8348 89.5014 54.9344 87.7216 56.0446C87.6029 55.276 88.1423 54.8596 88.4659 54.3899C95.9842 43.7254 104.322 33.6801 112.833 23.7842C119.348 16.2049 126.155 8.88169 132.907 1.51583C134.115 0.20278 135.313 -0.1495 137.006 0.0533283C161.934 2.95697 184.069 12.2871 203.151 28.4173C225.134 47.0027 238.887 70.4561 244.453 98.5531C245.942 106.058 246.502 113.648 246.513 121.334C246.567 149.709 237.636 175.009 219.902 197.16C201.047 220.688 176.507 235.259 146.768 241.237C146.337 241.301 145.884 241.494 145.42 241.195Z" fill="#7C69DE"/>
<path d="M69.9649 11.3691C67.6781 17.3579 65.6394 23.0371 64.0861 28.8657C61.1413 39.9359 59.4262 51.1662 59.7929 62.6313C60.3215 79.0177 65.003 93.9843 75.6926 106.794C84.2465 117.043 95.1195 124.142 107.309 129.447C117.416 133.845 127.997 136.642 138.806 138.681C145.58 139.962 152.138 146.463 152.915 153.957C154.058 164.996 148.74 172.874 137.749 175.585C128.666 177.816 119.508 177.603 110.566 174.71C99.8657 171.24 93.8791 163.085 93.6202 151.94C93.5986 150.776 93.2318 150.531 92.1316 150.531C84.4622 150.573 76.782 150.584 69.1127 150.52C67.7535 150.509 67.3437 150.84 67.3976 152.217C67.9477 166.81 74.6031 178.051 86.6088 186.25C96.3061 192.868 107.233 196.178 118.894 197.138C129.82 198.035 140.596 197.213 151.081 193.765C151.232 193.712 151.416 193.754 151.588 193.754C151.631 194.192 151.297 194.374 151.081 194.598C136.95 208.881 121.59 221.627 103.911 231.48C99.3479 234.021 94.6125 236.188 89.6291 237.832C88.4749 238.216 87.4178 238.195 86.2528 237.832C42.8362 224.211 10.5515 188.129 2.11622 143.763C-8.02331 90.4081 18.9759 36.5625 68.0448 12.2659C68.5626 11.999 69.0911 11.7641 69.9649 11.3691Z" fill="#A89FFF"/>
</svg>
