<svg width="157" height="76" viewBox="0 0 157 76" fill="none" xmlns="http://www.w3.org/2000/svg">
<path d="M101.893 30.0368C101.893 29.4654 101.689 29.0284 101.285 28.7191C100.881 28.4099 100.151 28.0973 99.0943 27.7846C98.038 27.4687 97.199 27.1191 96.574 26.7325C95.3818 25.9896 94.784 25.0215 94.784 23.8282C94.784 22.7828 95.2154 21.9223 96.0747 21.2466C96.9341 20.571 98.0516 20.2314 99.4272 20.2314C100.337 20.2314 101.153 20.3962 101.866 20.7289C102.579 21.0617 103.14 21.5357 103.547 22.1508C103.955 22.766 104.159 23.445 104.159 24.1946H101.893C101.893 23.519 101.679 22.9878 101.251 22.6046C100.823 22.2214 100.208 22.0298 99.4102 22.0298C98.6663 22.0298 98.0889 22.1878 97.6779 22.5004C97.2669 22.8164 97.0597 23.2534 97.0597 23.8181C97.0597 24.2921 97.2805 24.6887 97.7255 25.0081C98.1704 25.3241 98.9007 25.6333 99.9197 25.9325C100.939 26.2316 101.757 26.5745 102.375 26.9577C102.994 27.3409 103.445 27.7813 103.734 28.2754C104.023 28.7695 104.165 29.3511 104.165 30.0167C104.165 31.0957 103.748 31.9562 102.909 32.5949C102.073 33.2336 100.935 33.5529 99.5019 33.5529C98.5542 33.5529 97.6847 33.3781 96.8899 33.0319C96.0951 32.6856 95.4769 32.205 95.0354 31.5932C94.5938 30.9814 94.373 30.2688 94.373 29.4553H96.6488C96.6488 30.1914 96.8933 30.7629 97.3858 31.1663C97.8783 31.5696 98.5814 31.7713 99.4985 31.7713C100.29 31.7713 100.884 31.6133 101.285 31.294C101.693 30.978 101.893 30.5578 101.893 30.0368Z" fill="#0E0042"/>
<path d="M114.481 28.6551C114.481 30.1442 114.138 31.3342 113.456 32.2216C112.773 33.109 111.853 33.5528 110.701 33.5528C109.635 33.5528 108.779 33.2065 108.137 32.5107V37.0789H105.949V23.7407H107.963L108.055 24.7188C108.697 23.9457 109.57 23.5625 110.674 23.5625C111.863 23.5625 112.793 23.9995 113.466 24.8768C114.142 25.7508 114.478 26.9677 114.478 28.524V28.6551H114.481ZM112.304 28.4669C112.304 27.5055 112.111 26.7424 111.723 26.1777C111.336 25.613 110.783 25.3306 110.063 25.3306C109.169 25.3306 108.527 25.697 108.137 26.4265V30.6989C108.534 31.4485 109.179 31.8216 110.079 31.8216C110.776 31.8216 111.319 31.5426 111.713 30.988C112.107 30.4367 112.304 29.5963 112.304 28.4669Z" fill="#0E0042"/>
<path d="M122.147 33.3746C122.052 33.1897 121.967 32.8905 121.896 32.4737C121.199 33.1931 120.347 33.5528 119.341 33.5528C118.363 33.5528 117.565 33.2771 116.947 32.7258C116.329 32.1746 116.02 31.4922 116.02 30.6787C116.02 29.6535 116.403 28.8635 117.174 28.3156C117.945 27.7677 119.046 27.492 120.479 27.492H121.821V26.8601C121.821 26.3626 121.678 25.9626 121.396 25.6634C121.114 25.3642 120.686 25.213 120.109 25.213C119.61 25.213 119.202 25.3374 118.886 25.5827C118.567 25.8281 118.411 26.1441 118.411 26.5206H116.223C116.223 25.9928 116.4 25.4987 116.753 25.0382C117.106 24.5777 117.589 24.218 118.197 23.9558C118.805 23.6936 119.484 23.5625 120.235 23.5625C121.373 23.5625 122.283 23.8449 122.962 24.413C123.641 24.981 123.988 25.7777 124.005 26.8029V31.1493C124.005 32.0166 124.127 32.709 124.375 33.2233V33.3746H122.147ZM119.742 31.8149C120.174 31.8149 120.581 31.7107 120.962 31.5023C121.342 31.2939 121.627 31.0149 121.821 30.6653V28.8501H120.642C119.834 28.8501 119.223 28.9913 118.815 29.2703C118.407 29.5493 118.204 29.9426 118.204 30.4535C118.204 30.8703 118.343 31.1997 118.621 31.4451C118.903 31.6939 119.277 31.8149 119.742 31.8149Z" fill="#0E0042"/>
<path d="M130.299 31.8245C130.846 31.8245 131.298 31.6665 131.658 31.3539C132.018 31.038 132.208 30.6514 132.235 30.1875H134.297C134.273 30.7858 134.083 31.3472 133.73 31.8649C133.377 32.3859 132.894 32.796 132.29 33.0985C131.685 33.4011 131.03 33.5523 130.327 33.5523C128.965 33.5523 127.884 33.1153 127.086 32.2447C126.288 31.3707 125.891 30.1673 125.891 28.6311V28.4093C125.891 26.9437 126.288 25.7705 127.079 24.8865C127.871 24.0058 128.951 23.5654 130.32 23.5654C131.478 23.5654 132.422 23.8982 133.149 24.5671C133.879 25.2361 134.26 26.1134 134.297 27.1992H132.235C132.212 26.6479 132.021 26.1941 131.665 25.8378C131.308 25.4815 130.853 25.3033 130.303 25.3033C129.596 25.3033 129.049 25.5554 128.666 26.0664C128.282 26.5739 128.088 27.3437 128.081 28.3757V28.7219C128.081 29.7673 128.272 30.5472 128.652 31.0581C129.029 31.5691 129.579 31.8245 130.299 31.8245Z" fill="#0E0042"/>
<path d="M140.23 33.5523C138.845 33.5523 137.72 33.1221 136.861 32.2582C136.002 31.3943 135.57 30.2446 135.57 28.8093V28.5437C135.57 27.5824 135.757 26.7218 136.134 25.9655C136.508 25.2092 137.034 24.6209 137.714 24.1974C138.393 23.7772 139.147 23.5654 139.982 23.5654C141.307 23.5654 142.333 23.9823 143.056 24.8193C143.78 25.6563 144.14 26.8395 144.14 28.3723V29.2463H137.778C137.843 30.043 138.111 30.6716 138.583 31.1354C139.055 31.5993 139.646 31.8313 140.36 31.8313C141.362 31.8313 142.177 31.4312 142.808 30.6279L143.987 31.7405C143.596 32.3153 143.077 32.7624 142.425 33.0817C141.772 33.3943 141.042 33.5523 140.23 33.5523ZM139.969 25.2966C139.368 25.2966 138.885 25.505 138.515 25.9185C138.145 26.3353 137.911 26.9134 137.809 27.6563H141.973V27.495C141.925 26.7723 141.732 26.2243 141.389 25.8512C141.049 25.4848 140.577 25.2966 139.969 25.2966Z" fill="#0E0042"/>
<path d="M96.6807 40.7234H92.5946V51.87H90.3358V40.7234H86.2871V38.9082H96.6773V40.7234H96.6807Z" fill="#0E0042"/>
<path d="M95.9043 46.9659C95.9043 46.0213 96.0945 45.1709 96.4715 44.4145C96.8485 43.6582 97.3784 43.0767 98.0645 42.6699C98.7472 42.2632 99.5352 42.0615 100.422 42.0615C101.736 42.0615 102.803 42.4783 103.621 43.3153C104.44 44.1523 104.881 45.2616 104.949 46.6466L104.96 47.1541C104.96 48.1054 104.776 48.9525 104.406 49.7021C104.036 50.4517 103.509 51.0299 102.823 51.44C102.137 51.8501 101.342 52.0551 100.442 52.0551C99.0699 52.0551 97.9694 51.6013 97.144 50.6971C96.3187 49.7929 95.9077 48.5861 95.9077 47.0768V46.9659H95.9043ZM98.0917 47.1541C98.0917 48.1458 98.2989 48.9223 98.7133 49.4836C99.1276 50.045 99.7017 50.324 100.442 50.324C101.183 50.324 101.753 50.0383 102.164 49.4702C102.575 48.9021 102.779 48.0651 102.779 46.9693C102.779 45.9944 102.568 45.2247 102.144 44.6532C101.719 44.0818 101.145 43.7994 100.422 43.7994C99.7085 43.7994 99.1412 44.0784 98.7201 44.6398C98.2989 45.2011 98.0917 46.0381 98.0917 47.1541Z" fill="#0E0042"/>
<path d="M118.456 48.5319C118.456 47.9605 118.252 47.5235 117.848 47.2142C117.443 46.905 116.713 46.5924 115.657 46.2798C114.6 45.9638 113.762 45.6142 113.137 45.2276C111.944 44.4847 111.347 43.5166 111.347 42.3233C111.347 41.2779 111.778 40.4174 112.637 39.7417C113.497 39.0661 114.614 38.7266 115.99 38.7266C116.9 38.7266 117.715 38.8913 118.428 39.2241C119.142 39.5568 119.702 40.0308 120.11 40.646C120.517 41.2611 120.721 41.9401 120.721 42.6897H118.456C118.456 42.0141 118.242 41.483 117.814 41.0998C117.386 40.7165 116.771 40.5249 115.973 40.5249C115.229 40.5249 114.651 40.6829 114.24 40.9955C113.829 41.3115 113.622 41.7485 113.622 42.3132C113.622 42.7872 113.843 43.1839 114.288 43.5032C114.733 43.8192 115.463 44.1284 116.482 44.4276C117.501 44.7268 118.32 45.0696 118.938 45.4528C119.556 45.836 120.008 46.2764 120.297 46.7705C120.585 47.2647 120.728 47.8462 120.728 48.5118C120.728 49.5908 120.31 50.4513 119.471 51.09C118.636 51.7287 117.498 52.048 116.064 52.048C115.117 52.048 114.247 51.8732 113.452 51.527C112.658 51.1808 112.039 50.7001 111.598 50.0883C111.156 49.4765 110.936 48.7639 110.936 47.9504H113.211C113.211 48.6866 113.456 49.258 113.948 49.6614C114.441 50.0648 115.144 50.2665 116.061 50.2665C116.852 50.2665 117.447 50.1085 117.848 49.7891C118.255 49.4765 118.456 49.0563 118.456 48.5319Z" fill="#0E0042"/>
<path d="M125.256 39.8969V42.2399H126.975V43.8433H125.256V49.2216C125.256 49.588 125.331 49.8569 125.477 50.0183C125.623 50.183 125.888 50.2637 126.265 50.2637C126.516 50.2637 126.771 50.2334 127.029 50.1729V51.8469C126.53 51.9847 126.051 52.0519 125.589 52.0519C123.911 52.0519 123.069 51.1343 123.069 49.2989V43.8399H121.469V42.2365H123.069V39.8936H125.256V39.8969Z" fill="#0E0042"/>
<path d="M134.541 50.9296C133.899 51.6792 132.989 52.0523 131.807 52.0523C130.751 52.0523 129.952 51.7464 129.409 51.1347C128.865 50.5229 128.594 49.6388 128.594 48.4825V42.2402H130.781V48.4556C130.781 49.6791 131.294 50.2909 132.32 50.2909C133.38 50.2909 134.1 49.9144 134.47 49.1615V42.2436H136.657V51.8775H134.596L134.541 50.9296Z" fill="#0E0042"/>
<path d="M138.471 46.9816C138.471 45.4992 138.817 44.3059 139.513 43.405C140.21 42.5042 141.14 42.0571 142.312 42.0571C143.345 42.0571 144.177 42.4134 144.812 43.126V38.1914H147V51.8692H145.019L144.911 50.8708C144.259 51.654 143.386 52.0473 142.292 52.0473C141.151 52.0473 140.23 51.5935 139.524 50.686C138.824 49.7784 138.471 48.5447 138.471 46.9816ZM140.658 47.1699C140.658 48.148 140.848 48.9145 141.229 49.4624C141.609 50.0103 142.149 50.2859 142.852 50.2859C143.746 50.2859 144.401 49.8926 144.812 49.1027V44.9883C144.411 44.2151 143.763 43.8319 142.869 43.8319C142.163 43.8319 141.616 44.1109 141.232 44.6656C140.848 45.2202 140.658 46.0539 140.658 47.1699Z" fill="#0E0042"/>
<path d="M152.689 48.7749L154.669 42.2402H156.999L153.131 53.3364C152.536 54.9566 151.531 55.7667 150.108 55.7667C149.788 55.7667 149.438 55.713 149.055 55.6054V53.9247L149.469 53.9516C150.019 53.9516 150.437 53.8507 150.716 53.6524C150.994 53.4541 151.215 53.1213 151.378 52.6507L151.694 51.8238L148.273 42.2402H150.631L152.689 48.7749Z" fill="#0E0042"/>
<path d="M45.7908 75.9488C45.8078 75.8983 45.818 75.8412 45.8452 75.8009C50.22 69.7502 53.4264 63.0979 56.1063 56.1834C57.9472 51.4303 57.4785 46.8453 54.802 42.4955C54.0412 41.2585 52.9984 40.2703 51.8096 39.4299C48.644 37.1945 45.1794 35.6516 41.3855 34.7743C39.069 34.2398 36.8476 33.3927 34.7315 32.3002C34.1133 31.9809 33.5325 31.6044 32.9789 31.191C29.7182 28.7539 30.6488 24.0176 33.3729 22.2797C34.7689 21.3889 36.2906 20.9822 37.9175 20.841C39.8162 20.6763 41.6945 20.7637 43.4913 21.4293C46.3207 22.4747 47.8628 24.5285 48.1549 27.4967C48.2602 28.5589 48.2432 28.5589 49.3301 28.5589C51.5073 28.5589 53.6879 28.5489 55.8651 28.569C56.3033 28.5724 56.429 28.4446 56.4018 28.0177C56.0757 22.4915 53.2531 18.609 48.3451 16.1619C45.0945 14.5417 41.5893 14.1181 37.9889 14.2996C34.898 14.4543 31.9395 15.103 29.2324 16.6459C28.6958 16.9518 28.1829 17.298 27.6225 17.6476C27.5851 17.4056 27.7549 17.2745 27.8568 17.1266C30.2243 13.7685 32.8498 10.6054 35.5297 7.48931C37.5813 5.10268 39.7245 2.79672 41.8508 0.477312C42.2312 0.0638524 42.6082 -0.0470754 43.1415 0.0167923C50.991 0.931109 57.9608 3.86902 63.9694 8.94819C70.8916 14.8005 75.2223 22.1856 76.9749 31.033C77.4437 33.3961 77.6203 35.7861 77.6237 38.2063C77.6407 47.1411 74.8283 55.1077 69.2443 62.0828C63.3071 69.4914 55.5798 74.0798 46.2154 75.9622C46.0795 75.9824 45.9369 76.0429 45.7908 75.9488Z" fill="#7C69DE"/>
<path d="M22.0309 3.58008C21.3109 5.46586 20.6689 7.25415 20.1798 9.08951C19.2525 12.5753 18.7124 16.1116 18.8279 19.7218C18.9944 24.8816 20.4685 29.5944 23.8345 33.6282C26.528 36.8552 29.9518 39.0905 33.7899 40.7612C36.9725 42.1461 40.3046 43.0268 43.708 43.6688C45.841 44.0722 47.9061 46.1193 48.1507 48.4791C48.5107 51.9548 46.8362 54.4356 43.3751 55.2894C40.5152 55.9919 37.6315 55.9247 34.8157 55.0138C31.4463 53.9213 29.5612 51.3531 29.4797 47.8438C29.4729 47.4774 29.3574 47.4 29.0109 47.4C26.5959 47.4135 24.1776 47.4169 21.7626 47.3967C21.3346 47.3933 21.2056 47.4975 21.2225 47.9312C21.3958 52.5263 23.4915 56.0659 27.2719 58.6475C30.3254 60.7316 33.7662 61.7736 37.4379 62.0762C40.8786 62.3585 44.2718 62.0997 47.5733 61.014C47.6208 60.9971 47.6786 61.0106 47.7329 61.0106C47.7465 61.1484 47.6412 61.2056 47.5733 61.2762C43.1237 65.7738 38.287 69.7874 32.72 72.89C31.2832 73.69 29.7921 74.3724 28.2229 74.8901C27.8595 75.0111 27.5266 75.0043 27.1598 74.8901C13.4885 70.6008 3.3225 59.2391 0.666369 45.2689C-2.52643 28.4683 5.97524 11.5131 21.4263 3.86244C21.5894 3.7784 21.7558 3.70445 22.0309 3.58008Z" fill="#A89FFF"/>
</svg>
